<svg version="1.2" xmlns="http://www.w3.org/2000/svg" viewBox="0 0 855 352" width="855" height="352">
	<style>
		.s0 { fill: #fefefe } 
		.s1 { fill: #0f3254 } 
		.s2 { fill: #59af49 } 
		.s3 { fill: #c7c4ce } 
	</style>
	<g id="Background">
		<path id="Path 0" class="s0" d="m0 176v176h855v-352h-855z"/>
		<path id="Path 1" class="s1" d="m73.83 64.91c-5.26 0.46-7.23 1.12-9.28 3.09-1.44 1.38-3.11 4.08-3.73 6-0.77 2.43-1.14 26.16-1.22 77.79l-0.1 74.3c3.88 0.92 7.36 0.9 10.25 0.55 2.89-0.35 7.61-1.75 10.5-3.1 2.89-1.35 6.99-4.17 9.12-6.25 2.13-2.08 4.65-5.36 5.61-7.29 0.96-1.93 2.36-5.3 3.11-7.5 1.07-3.16 1.36-14.56 1.38-54.21 0.03-46.88 0.15-50.33 1.82-52 1.63-1.64 4.18-1.79 29.5-1.74 15.24 0.03 28.95 0.37 30.46 0.75 1.51 0.39 3.07 1.49 3.45 2.45 0.39 0.96 0.88 21.33 1.08 45.25l0.38 43.5c17.31 18.56 23.8 25.42 25.59 27.23 1.79 1.8 4.15 3.27 5.25 3.27 1.1 0 3.13-0.45 4.5-1l2.5-1c0.49-114.87 0.54-116.19 2.5-117.6 1.63-1.17 7.39-1.43 31-1.43 21.75 0 29.47 0.31 30.88 1.26 1.79 1.21 1.88 3.55 2 52.32l0.12 51.05c6.42 13.16 8.41 15.75 12.13 18.54 2.68 2 6.67 4.39 8.87 5.31 2.2 0.91 6.7 1.89 10 2.16 3.33 0.28 6.67 0.04 7.5-0.52 1.31-0.89 1.5-9.14 1.5-64.02 0-59.14 0.11-63.11 1.79-64.78 1.41-1.42 3.16-1.74 8.5-1.55l6.71 0.24c16.53-16.65 21.63-22.61 22.01-23.98 0.38-1.38 0.24-3.4-0.31-4.5-0.99-1.97-2.38-2.01-94.35-2.75-51.34-0.41-111.58-0.68-133.85-0.59-22.28 0.08-43.5 0.42-47.17 0.75zm280.67 99.95c-1.65 0.39-4.24 1.47-5.75 2.42-1.51 0.95-3.5 3.18-4.41 4.97-0.96 1.88-1.66 5.56-1.65 8.75 0.01 3.02 0.7 7.07 1.54 9 1.49 3.45 1.48 3.52-1.36 5.25-1.58 0.96-3.6 3.21-4.5 5-0.89 1.79-1.66 5.72-1.69 8.75-0.05 3.76 0.57 6.61 1.93 9 1.1 1.93 3.33 4.42 4.95 5.55 1.62 1.13 4.96 2.38 7.44 2.77 2.47 0.4 6.97 0.24 10-0.35 3.02-0.59 6.72-1.84 8.22-2.77 2.61-1.64 2.8-1.62 5 0.53 1.62 1.59 3.5 2.23 6.53 2.25l4.25 0.02-8.07-9.5c3.15-9.69 4.07-14.53 4.07-17 0-4.48-0.02-4.5-3.5-4.5-3.5 0-3.5 0-3.58 4.75-0.04 2.61-0.6 6.25-1.25 8.09l-1.17 3.34c-13.56-14.09-18.4-19.98-19.5-22.18-1.1-2.2-2.02-5.69-2.03-7.75-0.03-2.25 0.78-4.85 2-6.5 1.66-2.25 2.81-2.75 6.28-2.76 2.34 0 5.26 0.67 6.5 1.5 1.24 0.83 2.47 2.86 2.75 4.51 0.44 2.67 0.89 3 4 3 3.07 0 3.5-0.31 3.5-2.5 0-1.38-0.79-4.13-1.75-6.12-0.96-1.99-3.1-4.41-4.75-5.39-1.65-0.98-4.8-2.01-7-2.3-2.2-0.29-5.35-0.21-7 0.17zm76 0.6c-2.2 0.82-5.13 2.34-6.5 3.38-1.38 1.03-3.63 4.07-5 6.74-2.2 4.28-2.54 6.37-2.83 17.39-0.2 7.28 0.14 14.42 0.8 17.03 0.63 2.47 2.25 6.19 3.59 8.25 1.34 2.06 4.35 4.73 6.69 5.92 2.92 1.49 6.13 2.18 10.25 2.21 4.74 0.03 7-0.53 10.75-2.67 3-1.71 5.66-4.28 7.23-6.96 1.36-2.34 2.49-5.04 2.5-6 0.01-1.32-0.78-1.74-3.23-1.71-2.53 0.03-3.7 0.73-5.25 3.16-1.1 1.73-3.27 4.07-4.82 5.22-1.83 1.35-4.29 2.07-7 2.04-2.3-0.02-5.42-0.81-6.93-1.75-1.51-0.94-3.65-3.17-4.75-4.96-1.74-2.83-2-5.05-2.02-17.25-0.03-12.94 0.14-14.27 2.26-17.5 1.26-1.93 3.89-4.33 5.85-5.35 2.5-1.3 4.66-1.68 7.24-1.25 2.12 0.35 5.17 1.97 7.23 3.85 1.96 1.79 3.76 4.04 4 5 0.31 1.25 1.44 1.75 3.94 1.75 2.68 0 3.49-0.41 3.48-1.75-0.01-0.96-1.14-3.66-2.5-6-1.44-2.46-4.27-5.3-6.73-6.74-2.34-1.37-6.5-2.72-9.25-3.01-3.19-0.34-6.45 0.01-9 0.96zm52.5-0.34c-1.93 0.58-4.96 2.14-6.75 3.46-1.79 1.33-4.26 4.33-5.5 6.67-2.06 3.9-2.25 5.58-2.25 20.25 0 13.72 0.27 16.5 1.87 19.5 1.03 1.93 2.6 4.34 3.5 5.36 0.9 1.02 3.43 2.78 5.63 3.92 2.68 1.38 5.98 2.08 10 2.11 4.52 0.04 7.24-0.58 11-2.49 4.05-2.06 5.53-3.56 7.78-7.97 2.69-5.24 2.78-5.95 2.74-20.43-0.04-13.87-0.23-15.4-2.53-20.25-1.84-3.88-3.6-5.89-6.74-7.71-2.49-1.44-6.53-2.66-9.75-2.96-3.03-0.28-7.08-0.04-9 0.54zm41 30.38v30.5h7l0.5-42.93c14.79 33.09 15.59 34.43 17.98 34.43 2.4 0 3.18-1.32 10.31-17.5l7.71-17.5 0.5 43.5h7v-61h-7c-14.34 32.55-18.78 41.43-19.12 40.75-0.34-0.69-4.61-10.16-9.5-21.04l-8.88-19.79-6.5 0.08zm67 0v30.5h7v-24c22.05-0.46 24.27-0.8 26.56-2.5 1.48-1.1 3.57-3.13 4.63-4.5 1.06-1.38 2.32-4.53 2.8-7 0.53-2.77 0.48-6.23-0.14-9-0.56-2.48-1.99-5.82-3.18-7.44-1.19-1.61-3.97-3.74-6.17-4.73-3.21-1.43-6.73-1.79-17.75-1.81l-13.75-0.02zm65.19-27.75c-0.54 1.51-5.52 15.01-11.08 30-5.56 14.99-10.11 27.47-10.11 27.75 0 0.27 1.8 0.5 4 0.5h4l4.5-14.08 26.72 0.58c3.72 10.07 4.9 13.12 5.04 13.27 0.13 0.15 1.88 0.15 3.88 0l3.64-0.27-22.28-60.51c-6.77 0.01-7.49 0.44-8.31 2.76zm40.81 27.75v30.5h7l0.5-46.72 30 46.68 7.5 0.04v-61h-8.05l-0.45 46.96c-29.54-46.25-30.1-46.97-33.25-46.97l-3.25 0.01zm61.05-14.75c4.55 8.66 8.88 16.65 9.62 17.75 0.95 1.42 1.34 5.71 1.34 14.75l-0.01 12.75h7l0.03-24.5c14.7-27.51 18.97-35.73 18.97-36 0-0.28-1.69-0.49-3.75-0.48l-3.75 0.01-15 28.93-14.5-28.96h-8.21zm-627.56 77.3c-1.65 0.47-4.01 1.78-5.25 2.91-1.24 1.12-2.98 3.5-3.87 5.29-1.04 2.08-1.49 4.93-1.25 7.9 0.25 3.2 1.15 5.5 2.87 7.38 1.38 1.5 3.96 3.34 5.75 4.1 1.79 0.75 5.39 1.36 8 1.35 2.61 0 5.25-0.34 5.87-0.75 0.61-0.4 1.4-1.74 1.75-2.98 0.62-2.2 0.5-2.23-5.12-1.56-5.52 0.66-5.88 0.56-9-2.5-2.44-2.4-3.25-4.06-3.25-6.69 0-2.67 0.86-4.39 3.63-7.25 3.49-3.6 3.84-3.73 8.99-3.25 5.05 0.47 5.37 0.37 5.38-1.75 0-1.24-0.67-2.48-1.5-2.75-0.82-0.27-3.41-0.46-5.75-0.41-2.34 0.05-5.6 0.48-7.25 0.96zm20.51 6.2c0 3.99-0.34 10.74-0.75 15.01l-0.76 7.76 7.5-0.02v-13h14v13c6.95 0 7-0.06 7-4.25 0-2.34 0.34-9.09 0.75-15.01l0.75-10.75-7.5 0.01v12h-14v-12h-7zm41.46 1.45c-2.6 4.84-6.25 11.61-8.1 15.05l-3.36 6.25c7.84 0 8.09-0.2 10.25-5.07l2.25-5.07 11.91 0.64c3.03 9.35 3.24 9.54 6.84 9.52l3.75-0.02c-4.82-12.79-7.22-19.43-8.45-23-2.21-6.46-2.25-6.5-6.29-6.8l-4.06-0.31zm26.52 1.06c0 5.36-0.34 12.11-0.75 15.01l-0.74 5.26 7.5-0.02c-0.08-14.94 0.16-16.28 1.21-15.35 0.71 0.64 2.87 4.36 4.79 8.27 3.28 6.65 3.71 7.11 6.75 7.1l3.25-0.02-7-14c4.27-1.53 6.07-3.1 6.75-4.49 0.69-1.38 1.25-3.64 1.25-5.01 0-1.57-1.02-3.26-2.75-4.54-2.28-1.69-4.23-2.03-11.5-2l-8.75 0.04zm25.01-7.25c0 2.31 0.35 2.5 4.75 2.49h4.75l-1.5 25.01h7c0.01-8.92 0.35-14.55 0.76-18.26l0.74-6.76c8.12 0.02 8.5-0.21 8.5-2.48v-2.5h-25zm29.01 6.25c0 4.81-0.34 11.56-0.75 15.01l-0.76 6.26 21.5-0.02c0-4.93-0.2-5-7-5-6.8 0-7-0.07-7-2.5 0-1.38 0.23-3.18 0.5-4 0.37-1.11 2.06-1.5 6.5-1.5 5.74 0 6-0.11 6-2.5 0-2.39-0.26-2.5-6-2.5h-6v-7c13.8 0 14-0.07 14-2.5v-2.5h-21zm26.99 1c-0.01 5.36-0.34 12.11-0.75 15.01l-0.74 5.26 7.5-0.02c-0.08-14.94 0.15-16.28 1.2-15.35 0.71 0.64 2.87 4.36 4.8 8.27 3.27 6.65 3.71 7.11 6.75 7.1l3.25-0.02-7-14c4.26-1.53 6.06-3.1 6.75-4.49 0.68-1.38 1.25-3.64 1.25-5.01 0-1.57-1.03-3.26-2.75-4.54-2.29-1.69-4.24-2.03-11.5-2l-8.75 0.04zm28.01-1c0 4.81-0.33 11.56-0.75 15.01l-0.75 6.26 21.5-0.02c0-4.93-0.2-5-7-5-6.8 0-7-0.07-7-2.5 0-1.38 0.22-3.18 0.5-4 0.37-1.11 2.05-1.5 6.5-1.5 5.73 0 6-0.11 6-2.5 0-2.39-0.27-2.5-6-2.5h-6v-7c13.8 0 14-0.07 14-2.5v-2.5h-21zm27.98 1c0 5.36-0.34 12.11-0.75 15.01l-0.74 5.26c15.54-0.02 18.95-0.5 21.5-1.78 2.29-1.14 4.28-3.3 5.76-6.24 1.24-2.48 2.25-6.19 2.25-8.25-0.01-2.07-0.8-5.35-1.76-7.31-1.04-2.12-3.07-4.14-5-5-2.05-0.91-6.57-1.44-12.25-1.44h-9zm50.47-1.06c-2.6 4.84-6.25 11.62-8.1 15.06l-3.36 6.25c7.84 0 8.09-0.2 10.25-5.08l2.25-5.07 11.91 0.65c3.03 9.34 3.24 9.53 6.84 9.52l3.75-0.02c-4.82-12.79-7.22-19.43-8.45-23-2.21-6.47-2.25-6.51-6.29-6.81l-4.06-0.3zm36.03-7.65c-1.65 0.48-4.01 1.79-5.25 2.91-1.23 1.12-2.98 3.51-3.87 5.29-1.04 2.08-1.49 4.93-1.25 7.9 0.26 3.2 1.15 5.5 2.87 7.38 1.38 1.5 3.97 3.35 5.75 4.1 1.79 0.76 5.39 1.37 8 1.36 2.62-0.01 5.26-0.35 5.87-0.75 0.61-0.41 1.4-1.75 1.75-2.99 0.62-2.2 0.5-2.23-5.12-1.56-5.52 0.66-5.88 0.56-9-2.5-2.44-2.39-3.25-4.06-3.25-6.69 0-2.66 0.87-4.39 3.63-7.25 3.49-3.6 3.84-3.73 8.99-3.25 5.05 0.47 5.37 0.37 5.38-1.75 0-1.23-0.67-2.47-1.5-2.75-0.82-0.27-3.41-0.46-5.75-0.41-2.33 0.05-5.6 0.48-7.25 0.96zm29 0c-1.65 0.48-4.01 1.79-5.25 2.91-1.23 1.12-2.98 3.51-3.87 5.29-1.04 2.08-1.49 4.93-1.25 7.9 0.26 3.2 1.15 5.5 2.87 7.38 1.38 1.5 3.97 3.35 5.75 4.1 1.79 0.76 5.39 1.37 8 1.36 2.62-0.01 5.26-0.35 5.87-0.75 0.61-0.41 1.4-1.75 1.75-2.99 0.62-2.2 0.5-2.23-5.12-1.56-5.52 0.66-5.88 0.56-9-2.5-2.44-2.39-3.25-4.06-3.25-6.69 0-2.66 0.87-4.39 3.63-7.25 3.49-3.6 3.84-3.73 8.99-3.25 5.05 0.47 5.37 0.37 5.38-1.75 0-1.23-0.67-2.47-1.5-2.75-0.82-0.27-3.41-0.46-5.75-0.41-2.33 0.05-5.6 0.48-7.25 0.96zm29 0c-1.65 0.48-4.09 1.9-5.43 3.16-1.33 1.26-3.02 3.76-3.75 5.54-0.72 1.79-1.31 4.72-1.31 6.5 0 1.79 0.9 4.72 2 6.5 1.1 1.79 3.23 4.02 4.74 4.95 1.52 0.93 5.45 1.86 8.75 2.07 4.83 0.31 6.87-0.07 10.43-1.94 2.73-1.44 5.12-3.67 6.25-5.83 1.01-1.92 1.84-5.3 1.86-7.5 0.01-2.52-0.83-5.29-2.28-7.5-1.26-1.92-3.86-4.28-5.78-5.25-1.91-0.96-5.5-1.7-7.98-1.66-2.47 0.05-5.85 0.48-7.5 0.96zm27.96 10.2c-0.5 7.75-0.37 11.95 0.41 13.5 0.62 1.24 2.71 2.93 4.63 3.75 1.93 0.83 5.53 1.5 8 1.5 2.48 0 6.08-0.67 8-1.5 1.93-0.82 4.13-2.51 4.89-3.75 0.84-1.36 1.63-6.67 2-13.5l0.61-11.25h-7c-1.18 19.32-1.69 21.86-3.16 23.25-1.01 0.97-3.19 1.75-4.84 1.75-1.8 0-3.85-0.89-5.15-2.25-1.99-2.08-2.11-2.99-1.63-12.5l0.52-10.25h-6.55zm34.53-1.5c0 5.37-0.34 12.12-0.75 15.02l-0.74 5.26 7.5-0.03c0.15-8.91 0.49-13.82 0.85-16.66l0.65-5.17 13 21.85 8.5-0.02c-0.01-13.56 0.33-20.31 0.74-23.76l0.76-6.26-7.5 0.02c-0.17 8.14-0.51 13.12-0.86 16.32l-0.64 5.81-13-22.08-8.5-0.05zm32.01-7.25c0 2.32 0.35 2.5 4.75 2.5l4.75-0.01-1.5 25.01h7c0.01-8.91 0.35-14.54 0.75-18.26l0.75-6.76c8.12 0.02 8.5-0.2 8.5-2.48v-2.5h-25zm34.46 6.2c-2.6 4.84-6.25 11.62-8.1 15.05l-3.36 6.25c7.84 0 8.08-0.19 10.25-5.07l2.25-5.07 11.91 0.64c3.03 9.35 3.24 9.54 6.84 9.52l3.75-0.02c-4.82-12.78-7.22-19.42-8.45-23-2.21-6.46-2.25-6.5-6.29-6.8l-4.06-0.3zm27.52 1.05c0 5.36-0.34 12.12-0.75 15.01l-0.74 5.26 7.5-0.02c0.16-8.91 0.49-13.83 0.85-16.67l0.65-5.16 13 21.85 8.5-0.02c-0.01-13.56 0.33-20.32 0.75-23.76l0.75-6.26-7.5 0.02c-0.17 8.14-0.5 13.12-0.86 16.31l-0.64 5.82-13-22.09-8.5-0.04zm32.01-7.25c0 2.32 0.35 2.5 4.75 2.49h4.75l-1.5 25.01h7c0.01-8.91 0.35-14.54 0.76-18.26l0.74-6.76c8.12 0.02 8.5-0.2 8.5-2.48v-2.5h-25zm31.5-1.35c-1.1 0.61-2.57 1.83-3.27 2.72-0.69 0.9-1.25 2.75-1.23 4.13 0.03 1.74 1.79 4.1 5.77 7.75 4.86 4.45 5.56 5.51 4.6 7-0.83 1.29-2.46 1.75-6.24 1.75-4.65 0-5.12 0.21-5.13 2.25 0 1.52 0.73 2.41 2.25 2.74 1.24 0.26 3.94 0.49 6 0.5 2.06 0 4.99-0.6 6.5-1.35 1.51-0.75 3.09-2.1 3.5-3 0.41-0.9 0.75-2.65 0.74-3.89-0.01-1.44-2.08-4.17-5.75-7.6-4.79-4.46-5.55-5.61-4.61-7 0.78-1.13 2.57-1.65 5.75-1.65 4.12 0 4.61-0.24 4.62-2.25 0-1.52-0.72-2.41-2.25-2.74-1.24-0.26-3.82-0.48-5.75-0.47-1.92 0.01-4.4 0.51-5.5 1.11z"/>
		<path id="Path 2" class="s2" d="m58 236.5v4.5h739v-9h-739z"/>
		<path id="Path 3" class="s3" d="m171.53 193.02c3.83 4.14 7.19 7.38 7.47 7.21 0.28-0.17-2.86-3.55-6.97-7.52l-7.46-7.21z"/>
		<path id="Path 4" class="s0" d="m487.87 171.68c-0.25 0.39-1.11 0.78-1.91 0.86-0.8 0.09-2.59 0.86-3.96 1.71-1.38 0.85-3.29 3.17-4.25 5.15-1.38 2.84-1.75 6.23-1.75 16.1 0 10.16 0.36 13.3 1.91 16.75 1.56 3.48 2.75 4.57 6.5 6 3.02 1.15 5.19 1.45 6.34 0.87 0.96-0.49 2.43-0.69 3.25-0.46 0.82 0.22 2.82-0.84 4.43-2.37 1.61-1.54 3.52-4.25 4.25-6.04 0.83-2.05 1.3-7.39 1.28-14.5-0.03-7.2-0.57-12.69-1.49-15.25-0.8-2.2-2.02-4.28-2.71-4.62-0.69-0.35-1.94-1.29-2.76-2.09-0.82-0.8-3.11-1.76-5.08-2.14-1.98-0.37-3.79-0.36-4.05 0.03zm110.61 1.64c-0.26 0.73-0.36 5.79-0.23 11.25l0.25 9.93c14.34 0.39 19.4 0.05 20.5-0.5 1.1-0.55 2.9-2.46 4-4.25 1.09-1.79 1.99-4.49 2-6 0-1.51-0.79-4.27-1.75-6.13-1.02-1.98-3-3.85-4.75-4.49-1.65-0.61-6.72-1.11-11.27-1.12-5.97-0.01-8.41 0.36-8.75 1.31zm60.16 7.43c-0.81 2.61-2.87 8.8-4.57 13.75-1.71 4.95-3.09 9.34-3.08 9.75 0 0.41 4.51 0.75 10.01 0.75 9.08 0 9.95-0.16 9.41-1.75-0.32-0.96-1.95-6.03-3.6-11.25-1.66-5.23-3.36-10.96-3.78-12.75-0.41-1.79-1.24-3.25-1.83-3.25-0.59 0-1.74 2.14-2.56 4.75zm-312.68 21.88c-1.35 1.65-2.13 3.91-2.06 6 0.05 1.86 0.56 4.38 1.11 5.62 0.56 1.24 2.59 3.04 4.5 4 1.92 0.96 5.06 1.75 6.99 1.75 1.93 0 4.96-0.71 6.75-1.57l3.25-1.56c-3.87-3.9-7.59-7.7-10.75-10.95-3.16-3.26-6.17-5.92-6.68-5.92-0.52 0-1.92 1.19-3.11 2.63zm-119.46 60.04c-0.46 0.36-0.76 1.94-0.67 3.5 0.13 2.21 0.77 2.96 2.92 3.43 2.13 0.47 3.31 0.02 5.25-1.98 2.48-2.57 2.48-2.61 0.5-4.07-1.1-0.82-3.16-1.5-4.58-1.52-1.42-0.02-2.96 0.27-3.42 0.64zm81 0c-0.46 0.36-0.76 1.94-0.67 3.5 0.1 1.67 0.89 3.1 1.92 3.48 0.99 0.37 3.17-0.17 5.03-1.25 1.81-1.04 3.25-2.35 3.21-2.9-0.04-0.55-0.84-1.55-1.78-2.22-0.94-0.67-2.87-1.23-4.29-1.25-1.42-0.02-2.96 0.27-3.42 0.64zm56.16 0.08c-0.24 0.41-0.6 4.8-0.8 9.75l-0.36 9c5.04 0.39 7.4 0.05 8.5-0.5 1.1-0.55 2.9-2.46 4-4.25 1.09-1.79 1.99-4.49 2-6 0-1.51-1.12-4.1-2.5-5.75-2-2.41-3.28-3-6.45-3-2.17 0-4.15 0.34-4.39 0.75zm138.78 0.57c-1.13 0.59-2.82 2.56-3.75 4.38-0.93 1.81-1.69 3.98-1.69 4.8 0 0.82 0.79 2.85 1.75 4.5 0.96 1.65 3.1 3.52 4.75 4.15 2.35 0.9 3.81 0.85 6.78-0.25 2.61-0.97 4.24-2.41 5.25-4.65 0.81-1.79 1.46-4.04 1.44-5-0.02-0.96-0.87-3.1-1.89-4.75-1.03-1.65-2.92-3.33-4.22-3.74-1.3-0.4-3.26-0.68-4.36-0.62-1.1 0.06-2.93 0.59-4.06 1.18zm-304.77 4.18l-1.67 4.5c5.42 0 6.99-0.34 6.98-0.75-0.01-0.41-0.39-2.44-0.85-4.5-0.47-2.06-1.28-3.75-1.82-3.75-0.53 0-1.72 2.02-2.64 4.5zm214 0l-1.67 4.5c5.8 0 6.89-0.43 6.68-1.25-0.17-0.69-0.55-2.71-0.84-4.5-0.29-1.79-0.97-3.25-1.51-3.25-0.54 0-1.74 2.02-2.66 4.5zm223 0l-1.67 4.5c5.42 0 6.99-0.34 6.98-0.75-0.01-0.41-0.39-2.44-0.85-4.5-0.47-2.06-1.28-3.75-1.82-3.75-0.53 0-1.72 2.02-2.64 4.5z"/>
	</g>
</svg>